<svg width="45" height="45" viewBox="0 0 45 45" fill="none" xmlns="http://www.w3.org/2000/svg">
<rect width="45" height="45" rx="2" fill="#E2445C"/>
<path d="M26.9629 18.7305C26.9629 17.3711 25.5449 16.6914 22.709 16.6914C21.7949 16.6914 20.4473 16.7266 18.666 16.7969L18.3672 21.7539C18.8594 21.6953 19.6445 21.6191 20.7227 21.5254C21.8125 21.4316 22.8086 21.3203 23.7109 21.1914C24.6133 21.0508 25.3809 20.7988 26.0137 20.4355C26.6465 20.0605 26.9629 19.4922 26.9629 18.7305ZM27.5605 37.0117C27.127 36.2031 26.2656 34.4746 24.9766 31.8262C23.6992 29.1777 22.8438 27.3379 22.4102 26.3066L18.1035 26.6055L17.752 35.3418C17.752 35.4355 17.7109 35.4883 17.6289 35.5C14.0664 35.5586 11.4062 35.6172 9.64844 35.6758L5.53516 35.8164C5.53516 34.1055 5.65234 30.2148 5.88672 24.1445L5.99219 21.2441L6.51953 10.2754C6.53125 10.2871 6.60156 10.2812 6.73047 10.2578C8.74609 9.97656 12.3906 9.83594 17.6641 9.83594C22.9375 9.83594 26.2539 9.84766 27.6133 9.87109C28.9844 9.91797 30.332 10.0469 31.6562 10.2578C36.8594 11.0898 39.4609 13.334 39.4609 16.9902C39.4609 19.041 38.834 20.6582 37.5801 21.8418C36.3379 23.0137 34.873 23.8809 33.1855 24.4434C33.9355 25.2988 35.3711 27.1797 37.4922 30.0859C39.625 32.9805 40.8906 34.6738 41.2891 35.166L27.5605 37.0117Z" fill="white"/>
</svg>
